<svg xmlns="http://www.w3.org/2000/svg" viewBox="0 0 320 180" width="320" height="180">
  <g transform="translate(110,0)">
    <path d="M50 7 C50 7 74 15 83 18 C85 19 86 20 86 23 L86 49 C86 71 71 87 50 94 C29 87 14 71 14 49 L14 23 C14 20 15 19 17 18 C26 15 50 7 50 7 Z" fill="#8473E6"/>
    <circle cx="62" cy="37" r="5.5" fill="#fff"/>
    <path d="M27 66 L43 45 L53 58 L62 47 L75 66 Z" fill="#fff"/>
  </g>
  <text x="160" y="152" text-anchor="middle" font-family="Newsreader, Georgia, serif" font-size="40" font-weight="600" fill="#FFFFFF" letter-spacing="-0.5">PrivoHub Photos</text>
</svg>
